<?xml version="1.0" encoding="UTF-8" standalone="no"?>
<!-- Created with Inkscape (http://www.inkscape.org/) -->

<svg
   xmlns:dc="http://purl.org/dc/elements/1.1/"
   xmlns:cc="http://creativecommons.org/ns#"
   xmlns:rdf="http://www.w3.org/1999/02/22-rdf-syntax-ns#"
   xmlns:svg="http://www.w3.org/2000/svg"
   xmlns="http://www.w3.org/2000/svg"
   xmlns:sodipodi="http://sodipodi.sourceforge.net/DTD/sodipodi-0.dtd"
   xmlns:inkscape="http://www.inkscape.org/namespaces/inkscape"
   width="744.09448819"
   height="1052.3622047"
   id="svg2"
   version="1.1"
   inkscape:version="0.48.4 r9939"
   sodipodi:docname="New document 1">
  <defs
     id="defs4" />
  <sodipodi:namedview
     id="base"
     pagecolor="#ffffff"
     bordercolor="#666666"
     borderopacity="1.0"
     inkscape:pageopacity="0.0"
     inkscape:pageshadow="2"
     inkscape:zoom="4.5628338"
     inkscape:cx="234.64467"
     inkscape:cy="512.52053"
     inkscape:document-units="px"
     inkscape:current-layer="layer1"
     showgrid="false"
     inkscape:window-width="1615"
     inkscape:window-height="1026"
     inkscape:window-x="65"
     inkscape:window-y="24"
     inkscape:window-maximized="1" />
  <metadata
     id="metadata7">
    <rdf:RDF>
      <cc:Work
         rdf:about="">
        <dc:format>image/svg+xml</dc:format>
        <dc:type
           rdf:resource="http://purl.org/dc/dcmitype/StillImage" />
        <dc:title></dc:title>
      </cc:Work>
    </rdf:RDF>
  </metadata>
  <g
     inkscape:label="Layer 1"
     inkscape:groupmode="layer"
     id="layer1">
    <path
       style="fill:#000000"
       d=""
       id="path3026"
       inkscape:connector-curvature="0" />
    <path
       style="fill:#000000"
       d=""
       id="path3024"
       inkscape:connector-curvature="0" />
    <g
       id="g3932">
      <g
         style="fill:#000000;fill-opacity:1"
         transform="matrix(0.84436568,0,0,0.84436568,54.04858,110.62061)"
         id="g3923">
        <path
           style="fill:#000000;fill-opacity:1;stroke:#000000;stroke-width:0.60000002;stroke-linecap:butt;stroke-linejoin:miter;stroke-miterlimit:4;stroke-opacity:1;stroke-dasharray:none"
           d="m 178.28833,504.2379 0.43832,-5.58863 -1.7533,-0.32874 0.10958,-5.25989 2.95869,0 0.32875,-5.25989 29.36771,3.28742 8.54732,-10.95809 1.7533,1.31497 -8.43775,10.95811 c 0.99798,4.94067 2.07089,7.62262 3.94492,9.64312 3.74403,1.54632 5.61896,0.60051 7.67068,-0.10958 2.68112,-1.97246 4.73371,-3.94492 6.24611,-5.91738 l 22.46411,3.28744 -2.08204,14.35511 -3.72575,-0.10958 c -1.97501,-2.67668 -3.90268,-5.16401 -5.58863,-6.68444 -1.51636,-1.15497 -2.46701,-2.54564 -7.34193,-2.30121 -3.29187,0.64638 -6.41063,1.72556 -8.54732,5.25989 l -21.69704,-2.52036 -7.01319,-7.23235 c -3.38943,-1.91377 -3.69603,-1.18513 -5.25989,-1.53413 -1.4659,0.0154 -2.8388,-0.0312 -5.15031,0.5479 -2.22708,1.44122 -3.93445,2.10288 -7.23234,5.15031 z"
           id="path3899"
           inkscape:connector-curvature="0"
           sodipodi:nodetypes="cccccccccccccccccccccccc" />
        <path
           sodipodi:type="arc"
           style="color:#000000;fill:#000000;fill-opacity:1;stroke:#000000;stroke-width:0.5;stroke-miterlimit:4;stroke-opacity:1;stroke-dasharray:none;marker:none;visibility:visible;display:inline;overflow:visible;enable-background:accumulate"
           id="path3903"
           sodipodi:cx="193.79404"
           sodipodi:cy="510.31964"
           sodipodi:rx="8.9308538"
           sodipodi:ry="8.9308538"
           d="m 202.72489,510.31964 c 0,4.93238 -3.99848,8.93085 -8.93085,8.93085 -4.93238,0 -8.93086,-3.99847 -8.93086,-8.93085 0,-4.93237 3.99848,-8.93085 8.93086,-8.93085 4.93237,0 8.93085,3.99848 8.93085,8.93085 z"
           transform="matrix(0.89257762,0,0,0.89257762,16.872901,52.080227)" />
        <path
           sodipodi:type="arc"
           style="color:#000000;fill:#000000;fill-opacity:1;stroke:#000000;stroke-width:0.5;stroke-miterlimit:4;stroke-opacity:1;stroke-dasharray:none;marker:none;visibility:visible;display:inline;overflow:visible;enable-background:accumulate"
           id="path3903-7"
           sodipodi:cx="193.79404"
           sodipodi:cy="510.31964"
           sodipodi:rx="8.9308538"
           sodipodi:ry="8.9308538"
           d="m 202.72489,510.31964 c 0,4.93238 -3.99848,8.93085 -8.93085,8.93085 -4.93238,0 -8.93086,-3.99847 -8.93086,-8.93085 0,-4.93237 3.99848,-8.93085 8.93086,-8.93085 4.93237,0 8.93085,3.99848 8.93085,8.93085 z"
           transform="matrix(0.89257762,0,0,0.89257762,61.198427,58.38114)" />
      </g>
      <path
         transform="translate(3.0682687,-2.8491066)"
         d="m 286.44479,536.23553 a 55.009674,55.009674 0 1 1 -110.01934,0 55.009674,55.009674 0 1 1 110.01934,0 z"
         sodipodi:ry="55.009674"
         sodipodi:rx="55.009674"
         sodipodi:cy="536.23553"
         sodipodi:cx="231.43512"
         id="path3928"
         style="color:#000000;fill:none;stroke:#000000;stroke-width:3;stroke-linecap:butt;stroke-linejoin:round;stroke-miterlimit:4;stroke-opacity:1;stroke-dasharray:none;stroke-dashoffset:0;marker:none;visibility:visible;display:inline;overflow:visible;enable-background:accumulate"
         sodipodi:type="arc" />
      <path
         sodipodi:nodetypes="ccccccccc"
         inkscape:connector-curvature="0"
         id="path3930"
         d="m 280.52742,561.22003 c -5.57711,3.6217 -14.42597,4.54497 -18.62878,1.09581 -9.28948,-5.17104 -15.20078,-9.76424 -25.86111,-7.45151 -18.29126,4.72006 -21.61996,15.36781 -31.12101,24.98448 l 23.45033,7.88983 21.69705,-0.43832 17.3138,-8.76648 11.83475,-11.83475 z"
         style="fill:#000000;fill-opacity:1;stroke:#000000;stroke-width:1px;stroke-linecap:butt;stroke-linejoin:miter;stroke-opacity:1" />
    </g>
  </g>
</svg>
